# xmcd CD database file
#
# Track frame offsets:
#	150
#	25480
#	39030
#
# Disc length: 723 seconds
#
# Revision: 0
# Processed by: cddbd v1.5PL3 Copyright (c) Steve Scherf et al.
# Submitted via: CDex 1.51
#
DISCID=1802d103
DTITLE=Rotten Graffty - e for 20
DYEAR=2004
DGENRE=JPop
TTITLE0=e for 20
TTITLE1=ケミカル犬
TTITLE2=e for 20 (Radio Edit)
EXTD=YEAR: 2004
EXTT0=
EXTT1=
EXTT2=
PLAYORDER=
